<?xml version="1.0" standalone="no"?>
<!DOCTYPE svg PUBLIC "-//W3C//DTD SVG 20010904//EN"
 "http://www.w3.org/TR/2001/REC-SVG-20010904/DTD/svg10.dtd">
<svg version="1.0" xmlns="http://www.w3.org/2000/svg"
 width="500.000000pt" height="500.000000pt" viewBox="0 0 500.000000 500.000000"
 preserveAspectRatio="xMidYMid meet">

<g transform="translate(0.000000,500.000000) scale(0.100000,-0.100000)"
fill="#000000" stroke="none">
<path d="M2560 3841 c-110 -43 -189 -124 -235 -242 -26 -66 -30 -95 -16 -118
7 -11 15 -5 34 25 13 22 32 45 41 53 14 12 16 11 16 -10 0 -86 84 -349 112
-349 4 0 8 10 9 23 1 12 2 51 3 87 4 109 35 176 145 308 68 83 68 83 14 65
-27 -9 -50 -19 -53 -22 -12 -14 -103 -72 -107 -68 -5 6 24 132 37 154 5 10 16
35 24 56 8 20 20 37 25 37 6 0 11 5 11 10 0 13 -7 12 -60 -9z"/>
<path d="M2686 3402 c-5 -9 -57 -231 -80 -342 -29 -142 -54 -252 -59 -256 -5
-5 -122 287 -195 486 l-39 105 -121 3 c-67 1 -122 0 -122 -4 0 -3 18 -47 39
-97 69 -159 176 -421 303 -742 116 -291 125 -310 150 -313 18 -2 28 2 32 15
18 61 316 1103 321 1126 l7 27 -115 0 c-64 0 -118 -3 -121 -8z m74 -102 c0 -5
-2 -10 -4 -10 -3 0 -8 5 -11 10 -3 6 -1 10 4 10 6 0 11 -4 11 -10z m-550 -34
c0 -3 -4 -8 -10 -11 -5 -3 -10 -1 -10 4 0 6 5 11 10 11 6 0 10 -2 10 -4z m30
-104 c0 -32 -15 -18 -24 22 -6 26 -5 28 8 17 9 -8 16 -25 16 -39z m30 -42 c0
-5 -2 -10 -4 -10 -3 0 -8 5 -11 10 -3 6 -1 10 4 10 6 0 11 -4 11 -10z m50
-110 c0 -5 -5 -10 -11 -10 -5 0 -7 5 -4 10 3 6 8 10 11 10 2 0 4 -4 4 -10z"/>
<path d="M1550 1523 c0 -10 21 -82 46 -161 l47 -143 66 3 66 3 52 153 c57 167
57 166 -12 160 l-38 -3 -35 -110 c-19 -60 -36 -105 -38 -100 -45 163 -57 201
-67 207 -7 4 -29 8 -49 8 -30 0 -38 -4 -38 -17z"/>
<path d="M2015 1530 c-4 -6 -24 -61 -45 -123 -21 -62 -45 -129 -54 -149 l-16
-38 48 0 c42 0 50 3 60 25 11 24 26 29 87 28 40 -1 45 -3 51 -28 6 -22 11 -25
55 -25 28 0 49 5 49 11 0 16 -101 282 -113 297 -12 15 -113 16 -122 2z m78
-109 c3 -16 9 -40 13 -55 6 -24 4 -26 -25 -26 -35 0 -38 10 -19 71 13 46 23
49 31 10z"/>
<path d="M2297 1533 c-4 -3 -7 -75 -7 -160 l0 -153 45 0 c45 0 45 0 45 34 l0
34 73 7 c39 4 82 11 94 16 34 13 56 65 50 117 -7 62 -40 93 -109 103 -68 10
-183 11 -191 2z m189 -84 c18 -15 18 -63 0 -78 -8 -7 -34 -11 -58 -9 -42 3
-43 4 -46 42 -2 21 -1 44 2 51 5 15 82 11 102 -6z"/>
<path d="M2647 1534 c-4 -4 -7 -76 -7 -161 l0 -153 135 0 135 0 0 30 0 30 -85
0 -85 0 0 30 0 29 73 3 72 3 0 30 0 30 -72 3 c-72 3 -73 3 -73 30 l0 27 82 0
83 0 0 35 0 35 -126 3 c-69 1 -128 -1 -132 -4z"/>
<path d="M3210 1520 c0 -6 43 -10 109 -10 61 0 112 -3 114 -7 3 -5 -49 -68
-114 -141 -66 -73 -119 -137 -119 -142 0 -6 58 -10 146 -10 112 0 145 3 142
13 -3 8 -38 13 -116 15 -62 1 -112 5 -112 8 0 3 52 63 115 134 63 70 115 133
115 139 0 8 -44 11 -140 11 -87 0 -140 -4 -140 -10z"/>
</g>
</svg>
